<?xml version="1.0" encoding="UTF-8"?>
<svg width="80px" height="35px" viewBox="0 0 80 35" version="1.1" xmlns="http://www.w3.org/2000/svg" xmlns:xlink="http://www.w3.org/1999/xlink">
    <!-- Generator: Sketch 61.2 (89653) - https://sketch.com -->
    <title>Logo RM 02</title>
    <desc>Created with Sketch.</desc>
    <g id="Logo-RM-02" stroke="none" stroke-width="1" fill="none" fill-rule="evenodd" opacity="0.50390625">
        <g id="LAB_logo" transform="translate(4.000000, 10.000000)" fill="#FFFFFF" fill-rule="nonzero">
            <g id="Group">
                <path d="M1.17355372,14.6549587 C0,14.6549587 0,13.9214876 0,13.1880165 L0,1.74586777 C0,1.01239669 0,0.27892562 1.17355372,0.27892562 C2.34710744,0.27892562 2.20041322,1.01239669 2.20041322,1.74586777 L2.20041322,13.1880165 C2.20041322,13.9214876 2.34710744,14.6549587 1.17355372,14.6549587 Z" id="Path"></path>
                <path d="M13.2024793,14.6549587 C12.4690083,14.6549587 12.0289256,14.3615702 12.0289256,13.6280992 L12.0289256,13.481405 C11.0020661,14.214876 9.8285124,14.6549587 8.65495868,14.6549587 C6.45454545,14.6549587 4.98760331,13.3347107 4.98760331,11.2809917 C4.98760331,8.9338843 6.8946281,7.61363636 9.97520661,7.61363636 C10.7086777,7.61363636 11.2954545,7.61363636 12.0289256,7.90702479 C11.8822314,6.73347107 11.2954545,6.29338843 10.1219008,6.29338843 C8.94834711,6.29338843 7.9214876,7.17355372 7.04132231,7.17355372 C6.45454545,7.17355372 6.01446281,6.58677686 6.01446281,6 C6.01446281,5.11983471 7.77479339,4.23966942 10.268595,4.23966942 C12.9090909,4.23966942 14.2293388,5.70661157 14.2293388,8.20041322 L14.2293388,13.1880165 C14.3760331,13.9214876 14.3760331,14.6549587 13.2024793,14.6549587 Z M12.1756198,9.81404959 C11.588843,9.66735537 11.0020661,9.52066116 10.4152893,9.52066116 C8.36157025,9.52066116 7.33471074,10.2541322 7.33471074,11.1342975 C7.33471074,11.8677686 7.9214876,12.4545455 8.94834711,12.4545455 C9.68181818,12.4545455 10.5619835,12.161157 11.1487603,11.8677686 C11.8822314,11.427686 12.1756198,10.9876033 12.1756198,10.6942149 L12.1756198,9.81404959 Z" id="Shape"></path>
                <path d="M22.5909091,14.6549587 C21.4173554,14.6549587 20.3904959,14.3615702 19.6570248,13.6280992 C19.6570248,14.3615702 19.3636364,14.8016529 18.6301653,14.8016529 C17.4566116,14.8016529 17.4566116,14.0681818 17.4566116,13.1880165 L17.4566116,1.74586777 C17.4566116,1.01239669 17.4566116,0.27892562 18.4834711,0.27892562 C19.6570248,0.27892562 19.5103306,1.01239669 19.5103306,1.74586777 L19.5103306,5.41322314 C20.3904959,4.67975207 21.4173554,4.38636364 22.5909091,4.38636364 C25.5247934,4.38636364 27.5785124,6.58677686 27.5785124,9.52066116 C27.7252066,12.4545455 25.3780992,14.6549587 22.5909091,14.6549587 Z M22.4442149,6.58677686 C20.6838843,6.58677686 19.5103306,7.76033058 19.5103306,9.52066116 C19.5103306,11.2809917 20.6838843,12.4545455 22.4442149,12.4545455 C24.2045455,12.4545455 25.3780992,11.2809917 25.3780992,9.52066116 C25.3780992,7.76033058 24.2045455,6.58677686 22.4442149,6.58677686 Z" id="Shape"></path>
                <path d="M35.3533058,14.6549587 C32.2727273,14.6549587 29.7789256,12.7479339 29.7789256,9.37396694 C29.7789256,6 32.2727273,4.09297521 35.3533058,4.09297521 C38.4338843,4.09297521 40.927686,6 40.927686,9.37396694 C40.927686,12.7479339 38.4338843,14.6549587 35.3533058,14.6549587 Z M35.3533058,6.29338843 C33.446281,6.29338843 32.1260331,7.61363636 32.1260331,9.52066116 C32.1260331,11.427686 33.446281,12.7479339 35.3533058,12.7479339 C37.2603306,12.7479339 38.5805785,11.427686 38.5805785,9.52066116 C38.5805785,7.61363636 37.2603306,6.29338843 35.3533058,6.29338843 Z" id="Shape"></path>
                <path d="M50.7561983,7.0268595 C50.1694215,7.0268595 49.5826446,6.44008264 48.9958678,6.44008264 C47.822314,6.44008264 46.6487603,7.61363636 45.6219008,8.64049587 L45.6219008,13.1880165 C45.6219008,13.9214876 45.6219008,14.6549587 44.5950413,14.6549587 C43.4214876,14.6549587 43.5681818,13.9214876 43.5681818,13.1880165 L43.5681818,5.70661157 C43.5681818,4.9731405 43.5681818,4.09297521 44.5950413,4.09297521 C45.768595,4.09297521 45.6219008,4.82644628 45.6219008,5.55991736 L45.6219008,5.85330579 C46.6487603,4.82644628 47.9690083,3.94628099 49.5826446,3.94628099 C50.4628099,3.94628099 51.9297521,4.38636364 51.9297521,5.55991736 C51.9297521,6.44008264 51.3429752,7.0268595 50.7561983,7.0268595 Z" id="Path"></path>
                <path d="M62.785124,14.6549587 C61.6115702,14.6549587 60.5847107,14.3615702 59.8512397,13.6280992 C59.8512397,14.3615702 59.5578512,14.8016529 58.8243802,14.8016529 C57.6508264,14.8016529 57.6508264,14.0681818 57.6508264,13.1880165 L57.6508264,1.74586777 C57.6508264,1.01239669 57.6508264,0.27892562 58.677686,0.27892562 C59.8512397,0.27892562 59.7045455,1.01239669 59.7045455,1.74586777 L59.7045455,5.41322314 C60.5847107,4.67975207 61.6115702,4.38636364 62.785124,4.38636364 C65.7190083,4.38636364 67.7727273,6.58677686 67.7727273,9.52066116 C67.9194215,12.4545455 65.7190083,14.6549587 62.785124,14.6549587 Z M62.6384298,6.58677686 C60.8780992,6.58677686 59.7045455,7.76033058 59.7045455,9.52066116 C59.7045455,11.2809917 60.8780992,12.4545455 62.6384298,12.4545455 C64.3987603,12.4545455 65.572314,11.2809917 65.572314,9.52066116 C65.572314,7.76033058 64.3987603,6.58677686 62.6384298,6.58677686 Z" id="Shape"></path>
            </g>
        </g>
    </g>
</svg>